<?xml version="1.0" encoding="UTF-8"?>
<svg xmlns="http://www.w3.org/2000/svg" viewBox="100 -40 2798 860" role="img" aria-labelledby="title desc">
  <title id="title">inochi</title>
  <desc id="desc">Geist SemiBold wordmark with a time-based candle replacing the first i.</desc>
  <defs>
    <mask id="candle-body" maskUnits="userSpaceOnUse" x="170" y="226" width="128" height="534">
      <rect x="170" y="226" width="128" height="534" fill="#fff"/>
      <rect id="burned" x="202" y="258" width="64" height="119.988845" fill="#000"/>
    </mask>
  </defs>
  <path d="M170 760V226H298V760Z" fill="#cb7051" mask="url(#candle-body)"/>
  <path d="M228 155C181 132 182 91 201 59C215 34 232 12 239-25C275 22 291 72 278 113C269 139 249 153 228 155Z"
        fill="#ff1a1a" transform="translate(-60.4 -0.4) scale(1.25 1.08)"/>
  <g fill="#171717">
    <path d="M414 760V226H530L533 317Q555 262 597.5 238Q640 214 693 214Q781 214 828 270.5Q875 327 875 417V760H747V458Q747 390 726.5 354Q706 318 654 318Q602 318 572 354Q542 390 542 458V760Z"/>
    <path d="M1222 772Q1143 772 1083.5 737.5Q1024 703 991.5 640.5Q959 578 959 493Q959 408 991.5 345.5Q1024 283 1083.5 248.5Q1143 214 1222 214Q1301 214 1360 248.5Q1419 283 1451.5 345.5Q1484 408 1484 493Q1484 578 1451.5 640.5Q1419 703 1360 737.5Q1301 772 1222 772ZM1222 668Q1283 668 1317 622Q1351 576 1351 493Q1351 410 1317 364Q1283 318 1222 318Q1160 318 1126 364Q1092 410 1092 493Q1092 576 1126 622Q1160 668 1222 668Z"/>
    <path d="M1800 772Q1720 772 1661 737.5Q1602 703 1569.5 640Q1537 577 1537 493Q1537 409 1569.5 346Q1602 283 1661 248.5Q1720 214 1800 214Q1902 214 1969.5 267Q2037 320 2049 415L1917 422Q1909 371 1877.5 344.5Q1846 318 1800 318Q1738 318 1704 364Q1670 410 1670 493Q1670 576 1704 622Q1738 668 1800 668Q1847 668 1878.5 641Q1910 614 1917 557L2049 563Q2038 659 1970.5 715.5Q1903 772 1800 772Z"/>
    <path d="M2123 760V50H2251V297Q2273 255 2313 234.5Q2353 214 2403 214Q2492 214 2538 270.5Q2584 327 2584 417V760H2456V448Q2456 318 2365 318Q2312 318 2281.5 352Q2251 386 2251 451V760Z"/>
    <path d="M2699 760V226H2827V760ZM2697 155V41H2830V155Z"/>
  </g>
</svg>
